HIERARCHY
ROOT RootJoint
{
    OFFSET   0.000000   0.000000   0.000000
    CHANNELS 6 Xposition Yposition Zposition Xrotation Yrotation Zrotation
    JOINT pelvis_lowerback
    {
        OFFSET   0.000000   0.093605   0.000000
        CHANNELS 3 Xrotation Yrotation Zrotation
        JOINT lowerback_torso
        {
            OFFSET   0.000000   0.100000   0.000000
            CHANNELS 3 Xrotation Yrotation Zrotation
            JOINT torso_head
            {
                OFFSET   0.000000   0.282350   0.000000
                CHANNELS 3 Xrotation Yrotation Zrotation
                End Site
                {
                    OFFSET   0.000000   0.192650   0.000000
                }
            }
            JOINT rTorso_Clavicle
            {
                OFFSET  -0.001000   0.157500   0.000000
                CHANNELS 3 Xrotation Yrotation Zrotation
                JOINT rShoulder
                {
                    OFFSET  -0.117647   0.000000   0.000000
                    CHANNELS 3 Xrotation Yrotation Zrotation
                    JOINT rElbow
                    {
                        OFFSET  -0.245000   0.000000   0.000000
                        CHANNELS 3 Xrotation Yrotation Zrotation
                        JOINT rWrist
                        {
                            OFFSET  -0.240000   0.000000   0.000000
                            CHANNELS 3 Xrotation Yrotation Zrotation
                            End Site
                            {
                                OFFSET  -0.116353  -0.002500   0.000000
                            }
                        }
                    }
                }
            }
            JOINT lTorso_Clavicle
            {
                OFFSET   0.001000   0.157500   0.000000
                CHANNELS 3 Xrotation Yrotation Zrotation
                JOINT lShoulder
                {
                    OFFSET   0.117647   0.000000   0.000000
                    CHANNELS 3 Xrotation Yrotation Zrotation
                    JOINT lElbow
                    {
                        OFFSET   0.245000   0.000000   0.000000
                        CHANNELS 3 Xrotation Yrotation Zrotation
                        JOINT lWrist
                        {
                            OFFSET   0.240000   0.000000   0.000000
                            CHANNELS 3 Xrotation Yrotation Zrotation
                            End Site
                            {
                                OFFSET   0.116353  -0.002500   0.000000
                            }
                        }
                    }
                }
            }
        }
    }
    JOINT rHip
    {
        OFFSET  -0.100000  -0.051395   0.000000
        CHANNELS 3 Xrotation Yrotation Zrotation
        JOINT rKnee
        {
            OFFSET   0.000000  -0.410000   0.000000
            CHANNELS 3 Xrotation Yrotation Zrotation
            JOINT rAnkle
            {
                OFFSET   0.000000  -0.390000   0.000000
                CHANNELS 3 Xrotation Yrotation Zrotation
                JOINT rToeJoint
                {
                    OFFSET   0.000000  -0.050000   0.130000
                    CHANNELS 3 Xrotation Yrotation Zrotation
                    End Site
                    {
                        OFFSET  -0.010000   0.002000   0.060000
                    }
                }
            }
        }
    }
    JOINT lHip
    {
        OFFSET   0.100000  -0.051395   0.000000
        CHANNELS 3 Xrotation Yrotation Zrotation
        JOINT lKnee
        {
            OFFSET   0.000000  -0.410000   0.000000
            CHANNELS 3 Xrotation Yrotation Zrotation
            JOINT lAnkle
            {
                OFFSET   0.000000  -0.390000   0.000000
                CHANNELS 3 Xrotation Yrotation Zrotation
                JOINT lToeJoint
                {
                    OFFSET   0.000000  -0.050000   0.130000
                    CHANNELS 3 Xrotation Yrotation Zrotation
                    End Site
                    {
                        OFFSET   0.010000   0.002000   0.060000
                    }
                }
            }
        }
    }
}
MOTION
Frames: 15
Frame Time:   0.008333
 -2.376719   0.925631   3.975860   0.000000   0.000000   0.000000   0.000000   0.000000   0.000000   0.000000   0.000000   0.000000   0.000000   0.000000   0.000000   0.000000   0.000000   0.000000   0.000000   0.000000   0.000000   0.000000   0.000000   0.000000   0.000000   0.000000   0.000000   0.000000   0.000000   0.000000   0.000000   0.000000   0.000000   0.000000   0.000000   0.000000   0.000000   0.000000   0.000000   0.000000   0.000000   0.000000   0.000000   0.000000   0.000000   0.000000   0.000000   0.000000   0.000000   0.000000   0.000000   0.000000   0.000000   0.000000   0.000000   0.000000   0.000000   0.000000   0.000000   0.000000   0.000000   0.000000   0.000000
 -2.376865   0.925249   3.976257   0.740912   0.193830  -0.010053  -0.545311  -0.113889  -0.129298  -0.180920  -0.077893   0.093494  -0.000224   0.010195   0.055418  -0.078809  -1.078574  -0.843558  -1.504571  -0.476715   2.456648   0.016207   1.201402   0.016585  -0.296015   1.107445  -2.329251   0.156693   0.857635   0.784422  -1.424857   0.939601  -1.971811   0.019010  -1.800868  -0.019888  -0.156870  -0.920787   2.020525  -0.794787  -0.078313  -0.033891   0.108822   0.000039   0.000110   3.007468  -0.391540   0.408040  -0.496118   0.001524   0.001253  -1.123617   0.084890   0.071125   1.001953  -0.000538   0.002445   2.108753   0.272897  -0.136087  -0.861281  -0.000501  -0.004186
 -2.377052   0.927833   3.976393   1.592924   0.270092  -0.126595  -1.035939  -0.178539  -0.191608  -0.396741  -0.125689   0.231768   0.031487   0.021398   0.105060  -0.186628  -2.493635  -1.098239  -2.930351  -1.295928   5.226872   0.034742   2.258153   0.027188  -0.584713   2.282934  -4.211476   0.277168   2.088449   1.033618  -2.725165   2.156953  -4.140260   0.041233  -3.420185  -0.031958  -0.308843  -1.966538   3.678412  -1.587796   0.001390   0.096190  -0.316443   0.000101  -0.000503   4.590277  -0.612982   0.534922  -3.227121   0.004057   0.002864  -2.355812  -0.031630   0.201197   1.457672  -0.000490   0.001823   3.169671   0.312488  -0.151699  -3.281562   0.000008  -0.003546
 -2.377160   0.931368   3.976552   2.280748   0.339542  -0.257245  -1.379542  -0.255160  -0.248426  -0.520875  -0.180346   0.388904   0.102127   0.031595   0.146439  -0.292097  -4.068555  -1.056370  -4.205712  -2.321259   8.032274   0.048566   3.167304   0.033221  -0.860988   3.056606  -5.438070   0.383818   3.482806   1.048162  -3.881482   3.530064  -6.327958   0.058112  -4.856691  -0.038844  -0.453222  -2.639001   4.796991  -2.500475   0.089739   0.218871  -0.253154   0.000080  -0.000311   6.535700  -0.794373   0.794087  -6.664337   0.009567   0.004218  -3.505481  -0.034388   0.314906   2.109404  -0.000306   0.001903   4.659072   0.476726  -0.226347  -6.405486  -0.001411  -0.009704
 -2.377175   0.935156   3.977139   2.858517   0.476476  -0.397239  -1.729446  -0.366694  -0.291728  -0.607879  -0.265658   0.556424   0.207265   0.040164   0.181235  -0.381079  -5.731084  -0.856569  -5.328650  -3.484535  10.754277   0.057074   3.956995   0.037150  -1.143687   3.465978  -6.270882   0.486613   4.946010   0.937121  -4.897928   4.979784  -8.442523   0.068683  -6.145916  -0.043903  -0.603567  -2.989649   5.590940  -3.207418   0.144125   0.336691  -0.202524   0.000069  -0.000160   8.612103  -0.976764   1.098492 -10.290922   0.014723   0.005573  -4.570367  -0.023180   0.399885   2.814933   0.000070   0.002522   6.239301   0.639627  -0.343753  -9.387438  -0.003640  -0.016883
 -2.377111   0.938876   3.978035   3.353162   0.598362  -0.509603  -2.096775  -0.471890  -0.348228  -0.703930  -0.353058   0.720004   0.320808   0.048694   0.211396  -0.449102  -7.412403  -0.574668  -6.308263  -4.722760  13.343182   0.061155   4.651849   0.039707  -1.439813   3.607772  -6.889201   0.589517   6.429390   0.768281  -5.786149   6.461183 -10.439724   0.073741  -7.310697  -0.047813  -0.767004  -3.100714   6.215451  -3.818729   0.168321   0.427808  -0.162019   0.000058  -0.000072  10.695703  -1.161667   1.431536 -13.818177   0.018806   0.009275  -5.542011   0.010231   0.447567   3.525007   0.000445   0.003063   7.744685   0.810564  -0.455807 -11.802350  -0.004358  -0.021426
 -2.376968   0.942426   3.979151   3.774748   0.693815  -0.604279  -2.486675  -0.570180  -0.400525  -0.819729  -0.437374   0.879444   0.432729   0.056914   0.237286  -0.494705  -9.071410  -0.257493  -7.157502  -5.990783  15.775884   0.062001   5.270823   0.041222  -1.746465   3.568329  -7.401352   0.695175   7.898689   0.572046  -6.559153   7.940153 -12.307340   0.074634  -8.370044  -0.050763  -0.942286  -3.045141   6.757653  -4.347572   0.181900   0.501742  -0.129615   0.000049  -0.000024  12.686466  -1.331569   1.755228 -16.939397   0.020318   0.013015  -6.421487   0.049331   0.478434   4.228233   0.000751   0.003350   9.167161   0.975035  -0.565551 -13.843067  -0.004316  -0.023440
 -2.376861   0.945607   3.979834   4.140084   0.606646  -0.916671  -2.627562  -0.498643  -0.070682  -1.186136  -0.530662   0.982973   0.468999  -0.112877   0.145552  -0.558591 -10.568398  -0.207658  -8.076612  -7.385751  17.675314   0.063382   6.183429   0.048601  -2.017149   3.088974  -7.394809   0.675518   9.612455   0.703262  -7.843426   9.190320 -14.129872   0.072146  -9.591565  -0.063878  -1.099802  -2.701774   7.043503  -5.245578   0.025293   0.837452   1.263379  -0.000238  -0.002530  12.433018  -1.424784   2.155551 -15.888345   0.013294   0.006190  -7.033484   0.068061   0.780262   4.508105   0.000647   0.002615  11.390300   1.131852  -0.612937 -19.543518   0.000256  -0.026569
 -2.376806   0.948950   3.980208   4.477103   0.558529  -1.171727  -2.764701  -0.442016   0.226528  -1.549456  -0.623969   1.072042   0.492075  -0.279769   0.063494  -0.625584 -11.960072  -0.311856  -8.910455  -8.699051  19.308989   0.060514   7.045890   0.053388  -2.281162   2.665161  -7.563043   0.641001  11.217058   0.937222  -9.026247  10.380168 -15.725637   0.065423 -10.744859  -0.073131  -1.268902  -2.436314   7.438309  -6.090423  -0.144430   1.120979   2.711501  -0.000701  -0.004252  12.195418  -1.515644   2.528484 -14.947350   0.007968   0.001583  -7.606612  -0.001127   1.040177   4.594461   0.000514   0.002035  13.274748   1.216600  -0.592655 -22.276240   0.003521  -0.021258
 -2.376832   0.952239   3.980331   4.769842   0.516691  -1.431873  -2.893911  -0.383154   0.541906  -1.884480  -0.706270   1.162002   0.507561  -0.435802  -0.009371  -0.696677 -13.244265  -0.538424  -9.671219  -9.924762  20.730071   0.055326   7.858780   0.055912  -2.533054   2.309522  -7.891880   0.598879  12.707593   1.250176 -10.113655  11.507555 -17.131033   0.056497 -11.826888  -0.078848  -1.431100  -2.224366   7.937887  -6.834016  -0.306256   1.419206   4.093657  -0.001254  -0.005256  11.976093  -1.601803   2.876278 -14.082885   0.003903  -0.001514  -8.167748  -0.068293   1.311323   4.697212   0.000401   0.001573  15.194626   1.291304  -0.616847 -25.014350   0.005139  -0.017259
 -2.376935   0.955424   3.980232   5.030487   0.509821  -1.694633  -3.021168  -0.334361   0.860430  -2.193931  -0.786677   1.255097   0.517759  -0.581727  -0.073596  -0.772080 -14.430120  -0.843646 -10.368445 -11.066774  21.978553   0.049168   8.625070   0.056634  -2.772336   2.019689  -8.341597   0.548093  14.086352   1.617988 -11.117739  12.566995 -18.373714   0.046885 -12.843433  -0.081767  -1.584710  -2.062914   8.522450  -7.484943  -0.461984   1.720827   5.395620  -0.001739  -0.005405  11.772034  -1.683619   3.200633 -13.291818   0.000904  -0.003309  -8.707816  -0.093011   1.571109   4.847737   0.000324   0.001285  17.074198   1.396888  -0.677858 -27.727897   0.005895  -0.016918
 -2.377126   0.958412   3.979910   5.262304   0.519913  -1.964261  -3.140023  -0.286019   1.179051  -2.478196  -0.859845   1.353083   0.522854  -0.717824  -0.130668  -0.852911 -15.520559  -1.200295 -11.010677 -12.126905  23.085953   0.042818   9.347970   0.055948  -2.999071   1.789939  -8.869375   0.488735  15.360277   2.025512 -12.047901  13.558433 -19.476820   0.037475 -13.798890  -0.082435  -1.729501  -1.947965   9.166467  -8.058659  -0.609633   2.028325   6.621731  -0.002102  -0.005116  11.582060  -1.760851   3.503224 -12.568867  -0.001224  -0.004273  -9.235506  -0.112552   1.839567   4.992100   0.000259   0.001088  18.910259   1.496497  -0.753609 -30.321638   0.006400  -0.017091
 -2.377394   0.961159   3.979375   5.468741   0.537308  -2.232253  -3.248691  -0.234934   1.489003  -2.738057  -0.923000   1.452514   0.524446  -0.844669  -0.182200  -0.939609 -16.520212  -1.586203 -11.604682 -13.108552  24.076915   0.036744  10.030283   0.054220  -3.212902   1.615394  -9.445132   0.421467  16.537140   2.457197 -12.911687  14.484068 -20.460419   0.028811 -14.696831  -0.081344  -1.865135  -1.874250   9.851052  -8.566211  -0.749528   2.329529   7.774537  -0.002309  -0.004646  11.405194  -1.833759   3.785509 -11.907691  -0.002655  -0.004721  -9.750637  -0.129505   2.109575   5.134912   0.000202   0.000948  20.672901   1.589981  -0.837929 -32.765229   0.006774  -0.017253
 -2.377740   0.962982   3.978215   5.423388   0.520862  -2.417583  -2.995859  -0.220968   1.680418  -2.958887  -1.008794   1.527779   0.497181  -0.927853  -0.212536  -1.119269 -17.337377  -1.977305 -12.346556 -13.914412  24.886399   0.031307  11.232143   0.060266  -3.436395   0.958353  -9.938197   0.496406  17.634002   2.826206 -13.484230  15.330615 -21.280334   0.020509 -16.017890  -0.080383  -2.066108  -1.616154  10.638209  -9.167912  -0.861476   2.533584  10.156228  -0.002814  -0.005052  10.077470  -1.955404   3.914962 -11.442820  -0.002642  -0.004726 -10.310570  -0.337983   2.346534   5.909487  -0.000296  -0.000356  20.335806   1.782806  -0.692109 -30.119044  -0.001196  -0.016052
 -2.378160   0.963968   3.976927   5.300747   0.510096  -2.572586  -2.720333  -0.204529   1.826923  -3.105309  -1.073664   1.567297   0.486959  -1.009291  -0.243213  -1.323637 -18.007798  -2.424684 -13.074670 -14.588795  25.590571   0.025037  12.403102   0.063687  -3.620041   0.564425 -10.443804   0.553742  18.606975   3.230530 -14.030431  16.075036 -22.001535   0.013162 -17.282061  -0.077927  -2.216675  -1.556497  11.443035  -9.633248  -0.964461   2.697280  12.561235  -0.003058  -0.005227   8.842913  -2.073024   4.032237 -11.047999  -0.002453  -0.004580 -10.878098  -0.548714   2.599247   6.676184  -0.001041  -0.001323  20.011241   1.961713  -0.553909 -27.701253  -0.007734  -0.014498
